<?xml version="1.0" encoding="UTF-8" standalone="no"?>
<!-- Created with Inkscape (http://www.inkscape.org/) -->

<svg
   xmlns:dc="http://purl.org/dc/elements/1.1/"
   xmlns:cc="http://creativecommons.org/ns#"
   xmlns:rdf="http://www.w3.org/1999/02/22-rdf-syntax-ns#"
   xmlns:svg="http://www.w3.org/2000/svg"
   xmlns="http://www.w3.org/2000/svg"
   version="1.1"
   width="589.69843"
   height="356.47586"
   id="svg3831">
  <defs
     id="defs3833" />
  <metadata
     id="metadata3836">
    <rdf:RDF>
      <cc:Work
         rdf:about="">
        <dc:format>image/svg+xml</dc:format>
        <dc:type
           rdf:resource="http://purl.org/dc/dcmitype/StillImage" />
        <dc:title></dc:title>
      </cc:Work>
    </rdf:RDF>
  </metadata>
  <g
     transform="translate(-117.83021,-124.73181)"
     id="layer1">
    <path
       d="m 310.82396,255.9234 c -5.0404,4.5356 -6.5525,6.5516 -6.5525,6.5516 0,0 -18.6481,-6.5516 -31.7521,-2.016 -13.1041,4.5356 -31.7522,13.6068 -35.2793,20.6621 -3.5281,7.0542 -5.0403,10.0786 -5.0403,10.0786 l 19.1518,15.6217 c 0,0 -12.0956,16.1264 -21.6715,16.6302 -9.5769,0.5037 -39.3121,-9.0712 -44.8561,-8.0627 -5.5441,1.0074 -53.9284,7.5589 -54.4321,13.102 -0.5047,5.543 -6.5525,22.1731 -9.5759,29.7321 -3.0243,7.559 -5.0403,20.662 0.5037,26.2051 5.5441,5.5431 37.8,32.2518 28.7278,48.882 -9.0722,16.6301 -22.1762,48.882 -2.0159,47.8745 20.1602,-1.0084 49.8964,-26.205 60.9845,-34.7725 11.0871,-8.5664 21.1677,-19.1498 35.784,-21.1647 14.6152,-2.0159 52.4151,-12.0946 72.0717,-5.544 19.6556,6.5515 31.2474,10.0796 36.7914,14.1104 5.544,4.0319 54.4321,9.575 64.009,11.0871 9.5759,1.5112 62.4957,10.5824 80.1354,7.559 17.6396,-3.0234 54.432,-19.6535 67.0323,-20.1573 12.5993,-0.5047 48.888,-5.0403 79.6317,-43.8426 30.7437,-38.8034 55.9443,-67.0244 57.4564,-69.544 1.5112,-2.5197 -2.5206,-4.5356 -3.5281,-6.5515 -1.0085,-2.015 -0.5037,-51.9055 -0.5037,-51.9055 l -20.665,19.1499 -3.5272,-13.1021 -22.6799,12.5983 c 0,0 -6.5525,-6.0478 -17.6406,-9.5749 -11.0881,-3.5281 -16.1274,-3.5281 -16.1274,-3.5281 l 25.1996,-46.3623 c 0,0 7.0562,0 12.0956,2.5196 5.0403,2.5197 9.5768,7.0553 9.5768,7.0553 l 2.5197,-17.6376 37.2961,9.5749 -7.5599,-15.118 c 0,0 10.5834,-36.7875 11.0881,-42.8352 0.5037,-6.0468 -2.5206,-3.0234 -2.5206,-6.5506 0,-3.5281 4.0318,-12.0945 -16.6323,-19.6535 -20.664,-7.5599 -36.7914,-10.0796 -43.8476,-11.5908 -7.0563,-1.5122 -11.0881,0 -11.0881,0 l -33.768,25.1966 c 0,0 -14.1115,-6.0468 -17.6397,-3.0234 -3.5281,3.0234 -39.3121,38.8034 -39.3121,38.8034 0,0 -7.5599,-17.6377 -38.8084,-20.6621 -31.2473,-3.0233 -71.5679,-11.5898 -86.1831,-11.5898 -37.2962,-5.5441 -55.9442,9.5739 -55.9442,9.5739 0,0 17.1358,20.662 24.6958,33.7641 7.56,13.103 8.0637,30.7406 8.0637,30.7406 0,0 -5.0403,-5.0393 -18.1433,-2.0159 -13.1041,3.0234 -60.4809,25.1966 -65.5202,29.7321 z"
       id="path2"
       style="fill:#000000;fill-opacity:1;stroke:none" />
    <path
       d="m 621.79166,159.1679 c 0,0 -9.576,0.5038 -22.68,3.5272 -13.104,3.0233 -20.664,8.5674 -22.1762,11.5908 -1.5122,3.0234 6.0478,7.0552 16.6321,5.0393 10.5844,-2.0159 24.1922,-11.5908 26.7119,-14.6142 2.5206,-3.0234 1.5122,-5.5431 1.5122,-5.5431 z"
       id="path4"
       style="fill:#e3f5ff;fill-opacity:1;stroke:none" />
  </g>
</svg>
